<svg width="11" height="19" viewBox="0 0 11 19" fill="none" xmlns="http://www.w3.org/2000/svg">
<path d="M9.71546 15.8899C9.95014 16.147 10.0805 16.4854 10.0675 16.8373C10.0675 17.1891 9.9371 17.514 9.68938 17.7711C9.4547 18.0147 9.12876 18.1636 8.78977 18.1636C8.45079 18.1636 8.12484 18.0418 7.87713 17.7982L0.497725 10.138C0.380385 10.0162 0.28912 9.86733 0.223931 9.70493C0.158742 9.54252 0.119629 9.36658 0.119629 9.19064C0.119629 9.0147 0.158742 8.83876 0.223931 8.66282C0.28912 8.50042 0.380385 8.35154 0.497725 8.22974L7.87713 0.569589C7.99447 0.447785 8.13788 0.339514 8.29434 0.271845C8.46383 0.204176 8.63332 0.163574 8.80281 0.163574C8.9723 0.163574 9.15483 0.190642 9.31129 0.258311C9.46774 0.32598 9.61115 0.434251 9.74153 0.556055C9.85887 0.67786 9.95014 0.840266 10.0153 1.00267C10.0936 1.16508 10.1196 1.34102 10.1196 1.53049C10.1196 1.70643 10.0805 1.88237 10.0153 2.04478C9.95014 2.20718 9.84583 2.35606 9.71546 2.49139L3.26174 9.19064L4.48729 10.4493L9.71546 15.8899Z" fill="#FFFFFF"/>
</svg>
